<svg width="418" height="64" viewBox="0 0 418 64" fill="none" xmlns="http://www.w3.org/2000/svg">
<path d="M89.8 3H64.5L54.5 59.6H70L76.4 15.5H77.9L84.3 59.6H99.8L89.8 3Z" fill="black"/>
<path d="M163 59.6L162.3 17H160.8L153.6 59.6H138.4L131.1 17H129.7L129 59.6H114.6L116.9 3H141.1L145.3 34.3H146.6L150.9 3H175L177.4 59.6H163Z" fill="black"/>
<path d="M251.7 47.1V3H267.6V46.3V46.6V46.8V47V47.3L267.7 47.5V47.7L267.8 47.9V48.1L267.9 48.3L268 48.5L268.1 48.7L268.2 48.9L268.3 49.1L268.5 49.2L268.6 49.4L268.7 49.6L268.9 49.7L269 49.9L269.2 50L269.4 50.1L269.6 50.3L269.8 50.4L269.9 50.5L270.1 50.6L270.3 50.7H270.6L270.8 50.8H271L271.2 50.9H271.4H271.7H271.9H272.1H272.4H272.6L272.8 50.8H273L273.2 50.7H273.4L273.6 50.6L273.8 50.5L274 50.4L274.2 50.3L274.4 50.1L274.6 50L274.7 49.9L274.9 49.7L275 49.6L275.2 49.4L275.3 49.2L275.4 49.1L275.6 48.9L275.7 48.7L275.8 48.5L275.9 48.3V48.1L276 47.9L276.1 47.7V47.5L276.2 47.3V47V46.8V46.6V46.3V3H292.1V47.3L292 48.3L291.9 49.2L291.8 50.1L291.6 50.9L291.4 51.8L291.1 52.6L290.7 53.3L290.3 54.1L289.9 54.8L289.4 55.5L288.9 56.1L288.3 56.7L287.8 57.3L287.1 57.9L286.5 58.4L285.8 58.9L285 59.3L284.3 59.8L283.5 60.2L282.7 60.6L281.9 60.9L281 61.2L280.2 61.5L279.3 61.8L278.4 62L277.5 62.2L275.7 62.5L273.8 62.6L271.9 62.7L270 62.6L268.1 62.4L266.3 62.1L265.4 61.9L264.5 61.7L263.6 61.4L262.7 61.2L261.9 60.8L261.1 60.5L260.3 60.1L259.5 59.7L258.7 59.2L258 58.8L257.3 58.3L256.7 57.7L256 57.2L255.4 56.6L254.9 56L254.4 55.3L253.9 54.6L253.5 53.9L253.1 53.2L252.7 52.4L252.4 51.6L252.2 50.7L252 49.9L251.9 49L251.8 48L251.7 47.1Z" fill="black"/>
<path d="M359.5 3H345.7V38.4H345.4L329.4 3H312.4V59.6H326.2V26.5H326.5L341.5 59.6H359.5V3Z" fill="black"/>
<path d="M194.2 48.4V41H210L209.9 44.3V45.1L210 45.9V46.2L210.1 46.6V46.9L210.2 47.2L210.3 47.5L210.4 47.7V47.8L210.5 48L210.6 48.1V48.2L210.7 48.4L210.8 48.5L210.9 48.6L211 48.7L211.1 48.9L211.2 49L211.3 49.1L211.5 49.2L211.6 49.3L211.7 49.4L211.9 49.5H212L212.2 49.6L212.3 49.7L212.5 49.8H212.7L212.9 49.9L213.3 50L213.7 50.1H214.2L214.7 50.2H214.8H214.9H215H215.2L215.3 50.1H215.4H215.5H215.6L215.9 50L216.1 49.9L216.3 49.8L216.6 49.7L216.8 49.5L217 49.4L217.2 49.2L217.4 49L217.6 48.8L217.8 48.6L218 48.3L218.1 48.1L218.3 47.8L218.4 47.5L218.5 47.3L218.6 46.9L218.7 46.6L218.8 46.3V45.9V45.6V45.2V44.8L218.7 44.4L218.6 44L218.5 43.6L218.4 43.2L218.2 42.8L218 42.3L217.9 42.1L217.7 41.9L217.6 41.7L217.5 41.5L217.3 41.3L217.2 41.1L216.9 40.8L216.5 40.5L216.1 40.1L215.7 39.8L215.3 39.5L214.4 39L213.4 38.4L211.1 37.4L208.6 36.2L205.8 34.7L204.4 33.9L202.9 32.9L201.4 31.8L199.9 30.6L199.7 30.4L199.5 30.3L199.3 30.1L199.1 29.9L198.9 29.7L198.7 29.5L198.3 29.1L198 28.6L197.7 28.1L197.4 27.6L197.1 27.1L196.8 26.5L196.6 25.9L196.4 25.3L196.2 24.7L195.9 23.4L195.6 22.1L195.4 20.7L195.3 19.4L195.2 18V16.7V15.4L195.3 14.2L195.4 13.1L195.6 12L195.7 11.3L195.9 10.5L196.2 9.80002L196.5 9.10002L196.8 8.50002L197.2 7.80002L197.6 7.20001L198 6.70001L198.5 6.10002L199 5.60002L199.5 5.10002L200.1 4.70001L200.7 4.20001L201.4 3.80002L202 3.40001L202.7 3.10002L203.4 2.80002L204.1 2.50002L204.8 2.20001L205.6 1.90001L207.2 1.50002L208.8 1.20001L210.5 0.900009L212.1 0.800018L213.8 0.700012L215.5 0.800018L217.2 0.900009L218.9 1.10002L220.6 1.40001L222.2 1.80002L223.7 2.30002L225.2 2.80002L226.6 3.40001L227.2 3.80002L227.9 4.10002L228.5 4.50002L229.1 4.90001L229.6 5.30002L230.1 5.70001L230.6 6.20001L231.1 6.60002L231.5 7.10002L231.9 7.60002L232.2 8.10002L232.4 8.40001L232.5 8.60002L232.7 8.90001L232.8 9.20001L232.9 9.50002L233 9.70001L233.1 10L233.2 10.3V10.6L233.3 10.9V11.2L233.4 11.5V11.8V12.1V19.9H219L219.1 16.6V15.9V15.2L219 14.9V14.6L218.9 14.3L218.8 14V13.9L218.7 13.7V13.6L218.6 13.5L218.5 13.3V13.2L218.4 13.1L218.3 13L218.2 12.9L218.1 12.8L218 12.7L217.9 12.6L217.8 12.5L217.7 12.4L217.6 12.3L217.4 12.2H217.3L217.1 12.1L217 12H216.8L216.6 11.9L216.5 11.8L216.1 11.7H215.7L215.2 11.6H214.7H214.2H214H213.8H213.6L213.4 11.7L213.2 11.8H213L212.8 11.9L212.5 12L212.3 12.2L212.1 12.3L211.9 12.4L211.7 12.6L211.5 12.7L211.3 12.9L211.1 13.1L211 13.3L210.9 13.4L210.8 13.5V13.7L210.7 13.8L210.6 13.9V14L210.5 14.2V14.3L210.4 14.4V14.6L210.3 14.7V14.9V15V15.2V15.3L210.2 15.5V15.6V15.8L210.3 16V16.2V16.5L210.4 16.9L210.5 17.3L210.7 17.7L210.8 18.1L211 18.5L211.4 19.1L211.9 19.5L212.3 20L212.7 20.4L213.7 21.3L214.6 22L215.6 22.7L216.6 23.3L217.6 23.9L218.7 24.4L222.9 26.3L224.9 27.2L225.9 27.7L226.9 28.3L227.8 28.8L228.7 29.4L229.1 29.8L229.6 30.1L230 30.5L230.4 30.8L230.7 31.2L231.1 31.6L231.5 32.1L231.8 32.5L232.1 33L232.4 33.5L232.7 34L233 34.6L233.2 35.2L233.5 35.8L233.7 36.4L233.9 37.1L234.1 37.8L234.2 38.5L234.3 39.3L234.4 40.1L234.6 41.8V43.7L234.5 45.7L234.4 47.9L234.3 48.8L234.1 49.6L233.9 50.3L233.6 51.1L233.3 51.8L233 52.5L232.6 53.2L232.1 53.8L231.7 54.5L231.1 55L230.6 55.6L230 56.1L229.4 56.6L228.8 57.1L228.1 57.6L227.4 58L226.6 58.4L225.9 58.8L225.1 59.1L224.3 59.4L223.5 59.7L222.7 60L221 60.4L219.2 60.8L217.4 61L215.6 61.2H213.7L211.9 61.1L210.1 61L208.3 60.7L206.6 60.3L204.9 59.9L203.3 59.3L202.5 59L201.8 58.6L201.1 58.3L200.4 57.9L199.7 57.5L199.1 57L198.5 56.6L197.9 56.1L197.3 55.6L196.8 55L196.4 54.5L195.9 53.9L195.6 53.3L195.4 53L195.2 52.7L195.1 52.3L194.9 52L194.8 51.7L194.7 51.3L194.6 51L194.5 50.6L194.4 50.3L194.3 49.9V49.6L194.2 49.2V48.8V48.4Z" fill="black"/>
<path d="M19.9 0.700012L17.4 0.800018L15.2 1.10002L14.1 1.30002L13.1 1.60002L12.2 1.80002L11.3 2.10002L10.4 2.40001L9.60002 2.80002L8.80002 3.10002L8.10002 3.50002L7.40002 3.90001L6.70002 4.40001L6.10002 4.80002L5.50002 5.30002L5.00002 5.80002L4.50002 6.30002L4.00002 6.80002L3.60002 7.40001L3.20002 7.90001L2.90002 8.50002L2.50002 9.10002L2.30002 9.70001L2.00002 10.3L1.80002 10.9L1.60002 11.5L1.40002 12.2L1.20002 12.8L1.10002 13.5L1.00002 14.1V14.8L0.900024 16.1V17.4L1.00002 18.7L1.20002 19.9L1.40002 21.2L1.70002 22.4L2.00002 23.6L2.40002 24.7L2.80002 25.7L3.30002 26.7L3.70002 27.6L4.20002 28.4L4.70002 29.1L5.00002 29.4L5.20002 29.7L5.40002 30L5.70002 30.2L5.90002 30.4L6.00002 30.5L6.10002 30.6L7.70002 31.8L9.10002 32.9L10.6 33.9L12 34.7L14.8 36.2L17.3 37.4L19.6 38.4L20.6 39L21.5 39.5L21.9 39.8L22.3 40.1L22.7 40.5L23.1 40.8L23.4 41.1L23.5 41.3L23.7 41.5L23.8 41.7L23.9 41.9L24.1 42.1L24.2 42.3L24.4 42.8L24.6 43.2L24.7 43.6L24.8 44L24.9 44.4L25 44.8V45.2V45.6V45.9V46.3L24.9 46.6L24.8 46.9L24.7 47.3L24.6 47.5L24.5 47.8L24.3 48.1L24.2 48.3L24 48.6L23.8 48.8L23.6 49L23.4 49.2L23.2 49.4L23 49.5L22.8 49.7L22.5 49.8L22.3 49.9L22.1 50L21.8 50.1H21.7H21.6H21.5L21.4 50.2H21.2H21.1H21H20.9L20.4 50.1H19.9L19.5 50L19.1 49.9L18.9 49.8H18.7L18.5 49.7L18.4 49.6L18.2 49.5H18.1L17.9 49.4L17.8 49.3L17.7 49.2L17.5 49.1L17.4 49L17.3 48.9L17.2 48.7L17.1 48.6L17 48.5L16.9 48.4L16.8 48.2V48.1L16.7 48L16.6 47.8V47.7L16.5 47.5L16.4 47.2L16.3 46.9V46.6L16.2 46.2V45.9L16.1 45.1V44.3L16.2 41H0.400024V48.4V48.8V49.2L0.500023 49.6V49.9L0.600021 50.3L0.700024 50.6L0.800022 51L0.900024 51.3L1.00002 51.7L1.10002 52L1.30002 52.3L1.40002 52.7L1.60002 53L1.80002 53.3L2.20002 53.9L2.60002 54.5L3.00002 55L3.50002 55.6L4.10002 56.1L4.70002 56.6L5.30002 57L5.90002 57.5L6.60002 57.9L7.30002 58.3L8.00002 58.6L8.70002 59L9.50002 59.3L11.1 59.9L12.8 60.3L14.5 60.7L16.3 61L18.1 61.1L19.9 61.2H21.8L23.6 61L25.4 60.8L27.2 60.4L28.9 60L29.7 59.7L30.5 59.4L31.3 59.1L32.1 58.8L32.8 58.4L33.6 58L34.3 57.6L35 57.1L35.6 56.6L36.2 56.1L36.8 55.6L37.4 55L37.9 54.5L38.3 53.8L38.8 53.2L39.2 52.5L39.5 51.8L39.8 51.1L40.1 50.3L40.3 49.6L40.5 48.8L40.6 47.9L40.7 45.7L40.8 43.7V41.8L40.6 40.1L40.5 39.3L40.4 38.5L40.3 37.8L40.1 37.1L39.9 36.4L39.7 35.8L39.4 35.2L39.2 34.6L38.9 34L38.6 33.5L38.3 33L38 32.5L37.7 32.1L37.3 31.6L36.9 31.2L36.6 30.8L36.2 30.5L35.8 30.1L35.3 29.8L34.9 29.4L34 28.8L33.1 28.3L32.1 27.7L31.1 27.2L29.1 26.3L24.9 24.4L23.8 23.9L22.8 23.3L21.8 22.7L20.8 22L19.9 21.3L18.9 20.4L18.5 20L18.1 19.5L17.6 19.1L17.2 18.5L17 18.1L16.9 17.7L16.7 17.3L16.6 16.9L16.5 16.5V16.2V16V15.8L16.4 15.6L16.5 15.5V15.3V15.2V15V14.9L16.6 14.7V14.6V14.4L16.7 14.3V14.2L16.8 14V13.9L16.9 13.8L17 13.7V13.5L17.1 13.4L17.2 13.3L17.4 13.1L17.5 12.9L17.7 12.7L17.9 12.6L18.1 12.4L18.3 12.3L18.5 12.2L18.7 12L19 11.9L19.2 11.8H19.4L19.6 11.7L19.8 11.6H20H20.2H20.4H20.9H21.4L21.9 11.7H22.3L22.7 11.8L22.8 11.9L23 12H23.2L23.3 12.1L23.5 12.2H23.6L23.8 12.3L23.9 12.4L24 12.5L24.1 12.6L24.2 12.7L24.3 12.8L24.4 12.9L24.5 13L24.6 13.1L24.7 13.2V13.3L24.8 13.5L24.9 13.6V13.7L25 13.9V14L25.1 14.3L25.2 14.6V14.9L25.3 15.2V15.9V16.6L25.2 19.9H39.6V12.1V11.7V11.3L39.5 10.9V10.5L39.4 10.1L39.3 9.70001L39.2 9.40001L39.1 9.00002L38.9 8.70001L38.8 8.30002L38.6 8.00002L38.5 7.70001L38.3 7.40001L38.1 7.10002L37.9 6.80002L37.7 6.50002L37.4 6.20001L37.2 6.00002L36.9 5.70001L36.7 5.40001L36.1 5.00002L35.5 4.50002L34.9 4.10002L34.2 3.70001L33.5 3.40001L32.8 3.00002L32.1 2.70001L31.3 2.40001L29.7 2.00002L28.1 1.60002L26.4 1.20001L24.8 1.00002L23.1 0.800018L19.9 0.700012Z" fill="black"/>
<path d="M399.6 63.3H401.4H403.1L404.7 63.2001L406.1 63L407.5 62.8L408.7 62.5L409.3 62.3L409.8 62.1001L410.3 61.9L410.9 61.7001L411.3 61.5L411.8 61.2001L412.2 61L412.6 60.7001L413 60.4L413.4 60.2001L413.7 59.9L414.1 59.6001L414.4 59.3L414.7 58.9L414.9 58.6001L415.2 58.3L415.4 57.9L415.7 57.6001L415.9 57.2001L416.1 56.9L416.2 56.5L416.4 56.2001L416.7 55.4L416.9 54.7001L417.1 53.9L417.3 53.1001L417.4 52.3L417.5 51.6001V50.8L417.6 49.3V47.9V45.4V30H398.9V38.2001H402.7V47.9V48.1001V48.3V48.5L402.6 48.7001V48.9L402.5 49.1001V49.3L402.4 49.4L402.3 49.6001L402.2 49.8L402.1 50L402 50.1001L401.9 50.3L401.8 50.5L401.7 50.6001L401.5 50.7001L401.4 50.9L401.2 51L401.1 51.1001L400.9 51.2001L400.8 51.3L400.6 51.4L400.4 51.5L400.2 51.6001L400 51.7001L399.9 51.8H399.7L399.5 51.9H399.3H399.1H398.9H398.6H398.4H398.2H398H397.8L397.6 51.8H397.4L397.2 51.7001L397.1 51.6001L396.9 51.5L396.7 51.4L396.5 51.3L396.4 51.2001L396.2 51.1001L396.1 51L395.9 50.9L395.8 50.7001L395.6 50.6001L395.5 50.5L395.4 50.3L395.3 50.1001L395.2 50L395.1 49.8L395 49.6001L394.9 49.4L394.8 49.3V49.1001L394.7 48.9V48.7001L394.6 48.5V48.3V48.1001V47.9V16.3V16.1001V15.9V15.7L394.7 15.5V15.3L394.8 15.1001V14.9L394.9 14.7L395 14.5L395.1 14.4L395.2 14.2L395.3 14L395.4 13.9L395.5 13.7L395.6 13.6001L395.8 13.4L395.9 13.3L396.1 13.2L396.2 13L396.4 12.9L396.5 12.8L396.7 12.7L396.9 12.6001H397.1L397.2 12.5L397.4 12.4H397.6L397.8 12.3H398H398.2L398.4 12.2H398.6H398.9L399.1 12.3H399.3H399.5L399.7 12.4H399.9L400 12.5L400.2 12.6001H400.4L400.6 12.7L400.8 12.8L400.9 12.9L401.1 13L401.2 13.2L401.4 13.3L401.5 13.4L401.7 13.6001L401.8 13.7L401.9 13.9L402 14L402.1 14.2L402.2 14.4L402.3 14.5L402.4 14.7L402.5 14.9V15.1001L402.6 15.3V15.5L402.7 15.7V15.9V16.1001V16.3V21.5H417.6V15.1001L417.5 14.2V13.9L417.4 13.5V13.1001L417.3 12.7L417.2 12.3L417.1 12L417 11.6001L416.9 11.3L416.8 10.9L416.6 10.6001L416.4 10.2L416.3 9.90004L415.9 9.30005L415.5 8.70004L415 8.10005L414.6 7.50005L414 7.00005L413.5 6.50005L412.9 6.00005L412.2 5.60005L411.6 5.10005L410.9 4.70004L410.2 4.40004L409.5 4.00005L408.7 3.70004L407.9 3.40004L407.1 3.10005L405.5 2.60005L403.8 2.30005L402 2.00005L400.2 1.90004L398.5 1.80005H396.7L394.9 2.00005L393.2 2.20004L391.5 2.60005L389.8 3.10005L389 3.30005L388.2 3.60005L387.5 3.90004L386.7 4.30005L386 4.60005L385.3 5.00005L384.7 5.50005L384.1 5.90004L383.5 6.40004L382.9 6.90004L382.4 7.40004L381.9 7.90004L381.4 8.50005L381 9.10005L380.6 9.70004L380.5 10.1001L380.3 10.4L380.2 10.7L380 11.1001L379.9 11.4L379.8 11.8L379.7 12.1001L379.6 12.5L379.5 12.9V13.2L379.4 13.6001V14V14.8V50.3V50.9V51.4V51.9L379.5 52.4L379.6 52.9L379.7 53.3L379.8 53.8L379.9 54.2001L380 54.7001L380.2 55.1001L380.4 55.5L380.5 55.9L380.7 56.2001L381 56.6001L381.2 57L381.4 57.3L381.7 57.6001L381.9 57.9L382.2 58.2001L382.5 58.5L382.8 58.8L383.1 59.1001L383.7 59.6001L384.4 60.1001L385.1 60.5L385.8 60.9L386.6 61.3L387.4 61.6001L388.2 61.9L389 62.1001L389.8 62.4L391.5 62.7001L393.2 63L394.9 63.2001L396.6 63.3H398.1H399.6Z" fill="black"/>
</svg>
